<svg xmlns="http://www.w3.org/2000/svg" xmlns:xlink="http://www.w3.org/1999/xlink" version="1.1" width="650.1382" height="140.28607" viewBox="0 0 650.1382 140.28607">
<defs>
<clipPath id="clip_1">
<path transform="matrix(1,0,0,-1,-80.5734,378.438)" d="M80.5734 238.15192H730.7116V378.438H80.5734Z" clip-rule="evenodd"/>
</clipPath>
</defs>
<g clip-path="url(#clip_1)">
<path transform="matrix(1,0,0,-1,-80.5734,378.438)" d="M714.7329 285.6773H700.6496C699.7255 285.6773 698.9029 286.2607 698.5936 287.1343L684.3163 327.5515 682.8559 331.6969C682.6255 332.3466 682.7199 333.0683 683.1023 333.6378L685.9341 337.8475 712.6104 377.4685C713.0174 378.0711 713.6952 378.4326 714.422 378.4326H727.9271C729.6738 378.4326 730.7116 376.4815 729.7367 375.0316L702.0839 333.9626C701.5388 333.1519 701.4095 332.13 701.7327 331.2113L716.7906 288.5876C717.2921 287.1675 716.2387 285.6773 714.7329 285.6773" fill="#FFFFFF"/>
<path transform="matrix(1,0,0,-1,-80.5734,378.438)" d="M687.4013 333.7651C687.6371 333.1171 687.5481 332.3906 687.162 331.8157L684.3163 327.5515 657.0198 286.6504C656.6145 286.0424 655.935 285.6773 655.2048 285.6773H641.1898C639.4462 285.6773 638.407 287.6216 639.3747 289.0732L667.8697 331.7598C668.2538 332.3361 668.3431 333.0578 668.109 333.7109L653.1052 375.512C652.595 376.9339 653.6483 378.4326 655.1578 378.4326H669.8279C670.7486 378.4326 671.5695 377.8546 671.8805 376.988L685.9341 337.8475Z" fill="#FFFFFF"/>
<path transform="matrix(1,0,0,-1,-80.5734,378.438)" d="M555.5982 299.158 553.5179 287.833C553.2925 286.757 552.3265 285.8624 551.2626 285.6861 551.1351 285.6634 551.0075 285.6512 550.8782 285.6512H519.5463C519.1237 285.6512 518.7025 285.6634 518.2886 285.6861 516.3741 285.7839 514.5678 286.1141 512.8889 286.6487 506.0395 288.8235 501.3615 294.3819 500.2801 301.5057 499.894 304.0509 499.9691 306.7954 500.5684 309.6567L513.4025 375.9381C513.6837 377.3897 514.9539 378.438 516.4316 378.438H527.4179C529.3585 378.438 530.8172 376.6666 530.4467 374.7643L518.4476 312.9338C517.326 307.5883 519.8695 303.4726 524.3712 301.9161 525.4526 301.5408 526.443 301.3415 527.7285 301.3415H553.8742C555.0778 301.3415 555.8499 300.3633 555.5982 299.158" fill="#FFFFFF"/>
<path transform="matrix(1,0,0,-1,-80.5734,378.438)" d="M489.2295 332.8829 486.9638 321.4953C486.6877 320.0978 485.4178 319.0861 483.9415 319.0861H457.1079C448.5044 319.0861 440.0864 312.1041 438.5945 303.9355L435.2179 288.0689C434.9069 286.7063 433.6563 285.7385 432.2098 285.7385H420.7102C418.7832 285.7385 417.3299 287.4226 417.6828 289.2478L420.9163 307.1271C423.0893 318.992 431.1845 328.5839 441.966 333.2778 441.9765 333.2812 441.987 333.2866 441.9975 333.2937 442.8918 333.6814 443.795 334.0344 444.7191 334.3487 448.6025 335.6867 452.7791 336.4118 457.1079 336.4118H486.2072C488.1393 336.4118 489.5946 334.7138 489.2295 332.8829" fill="#FFFFFF"/>
<path transform="matrix(1,0,0,-1,-80.5734,378.438)" d="M503.2446 374.904 501.0347 363.8044C500.7569 362.4069 499.487 361.3972 498.011 361.3972H464.4624C455.8555 361.3972 446.3838 352.3082 444.892 344.1399L443.3811 333.2937H428.3161C426.4013 333.2937 424.9517 334.9585 425.2833 336.7752L427.212 347.3243C428.2705 353.124 431.8027 360.487 435.314 364.8946 442.1616 373.4804 452.8227 378.4309 464.0536 378.4309H500.2206C502.1527 378.4309 503.6097 376.7366 503.2446 374.904" fill="#FFFFFF"/>
<path transform="matrix(1,0,0,-1,-80.5734,378.438)" d="M148.7222 350.3534 148.3311 348.0058C147.1552 341.9966 141.279 335.7269 134.0957 335.7269H109.7113C108.3382 335.7269 107.3075 336.9813 107.566 338.3246L111.6904 359.6678C112.038 361.4635 113.6083 362.7632 115.4392 362.7632H139.3206C146.5021 362.7632 149.898 356.3629 148.7222 350.3534ZM164.9718 362.8035C162.2466 371.164 155.0302 378.4309 141.8029 378.4309L101.6546 378.438C99.686 378.438 97.9931 377.0422 97.6175 375.1084L80.9419 289.3598C80.5734 287.454 82.0304 285.6844 83.971 285.6844H94.5989C96.0769 285.6844 97.3451 286.7323 97.628 288.1806L103.4609 318.1552C103.6565 319.1822 104.5579 319.9266 105.6044 319.9266H126.0009C125.4784 315.7481 125.7386 310.6715 126.7835 306.8844 127.3493 304.727 128.1512 302.5607 129.208 300.477 133.5158 291.9747 140.83 284.8161 154.887 284.8161H156.3806C157.3345 284.8161 158.1608 285.4834 158.3563 286.4197L160.6465 297.4042C160.6779 297.5457 160.6901 297.6837 160.6901 297.8215 160.6901 298.9063 159.808 299.8341 158.6741 299.8341 156.7091 299.8341 154.9202 300.0611 153.3027 300.477 144.2503 302.8175 141.7802 312.1877 142.2607 320.442 142.3287 321.5982 143.0484 322.6218 144.114 323.0796 156.5396 328.4408 163.6877 339.1438 165.4381 348.5262L165.8313 349.9639C166.5842 353.9801 166.3639 358.5359 164.9718 362.8035" fill="#FFFFFF"/>
<path transform="matrix(1,0,0,-1,-80.5734,378.438)" d="M246.6641 378.438H202.8492Z" fill="#FFFFFF"/>
<path transform="matrix(1,0,0,-1,-80.5734,378.438)" d="M95.2226 362.8035H95.1633Z" fill="#FFFFFF"/>
<path transform="matrix(1,0,0,-1,-80.5734,378.438)" d="M317.4333 332.5949C314.4305 317.0546 306.8561 301.6437 284.5242 301.6437H271.5273C269.4101 301.6437 267.7558 303.3471 267.7088 305.3645V305.3682C267.7034 305.6389 267.7243 305.913 267.7802 306.1925L278.1777 359.6712C278.2318 359.9439 278.3123 360.2041 278.4206 360.4521V360.4555C279.0128 361.8303 280.3771 362.7632 281.9265 362.7632H296.4081C318.2176 362.7632 320.438 347.7436 317.4333 332.5949ZM331.8888 362.8035C326.952 371.9134 317.0718 378.4309 299.4109 378.4309H281.916V378.438H268.3916C266.423 378.438 264.7304 377.0422 264.3548 375.1084L250.2014 302.3198C248.5298 293.7251 255.1575 285.7612 263.9126 285.8434H281.5228C299.0982 285.8434 311.4975 292.3801 319.9717 301.5057 328.3146 310.4847 332.86 321.9687 334.8026 332.2052 336.8078 342.4263 336.7293 353.8613 331.8888 362.8035" fill="#FFFFFF"/>
<path transform="matrix(1,0,0,-1,-80.5734,378.438)" d="M254.029 374.7626 252.1894 365.298C251.9082 363.848 250.6399 362.8018 249.1639 362.8018L203.0726 362.7632C201.2403 362.7632 199.6645 361.4584 199.3221 359.6573L196.4696 344.7043C196.0189 342.3512 197.8234 340.1691 200.2218 340.1691H238.8016C240.1727 340.1691 241.2017 338.9219 240.9449 337.5768L238.7786 326.2694C238.5814 325.2421 237.6799 324.498 236.6337 324.498H195.6223C193.7917 324.498 192.2193 323.2018 191.8718 321.4026L188.909 306.0581C188.4515 303.7017 190.256 301.5145 192.6578 301.5145L233.9697 301.5057H238.3036C240.2444 301.5057 241.7031 299.7363 241.3327 297.832L239.4564 288.1806C239.1735 286.7323 237.9019 285.6861 236.4276 285.6861H187.8644C177.516 285.6861 169.7355 295.1209 171.7129 305.2826L185.2894 375.1084C185.665 377.0422 187.3579 378.438 189.3283 378.438H250.9999C252.9405 378.438 254.3992 376.6666 254.029 374.7626" fill="#FFFFFF"/>
<path transform="matrix(1,0,0,-1,-80.5734,378.438)" d="M422.1354 374.7626 420.2977 365.298C420.0148 363.848 418.7466 362.8018 417.2689 362.8018L371.181 362.7632C369.3453 362.7632 367.7712 361.4584 367.4271 359.6573L364.5763 344.7043C364.1255 342.3512 365.9318 340.1691 368.3268 340.1691H406.908C408.276 340.1691 409.3084 338.9219 409.0516 337.5768L406.8819 326.2694C406.688 325.2421 405.7883 324.498 404.7403 324.498H363.729C361.8981 324.498 360.326 323.2018 359.9785 321.4026L357.014 306.0581C356.5599 303.7017 358.3661 301.5145 360.7645 301.5145L402.0763 301.5057H406.4102C408.3511 301.5057 409.8095 299.7363 409.4393 297.832L407.5631 288.1806C407.2819 286.7323 406.012 285.6861 404.536 285.6861H355.9728C345.6227 285.6861 337.8438 295.1209 339.8179 305.2826L353.3961 375.1084C353.7717 377.0422 355.4663 378.438 357.4349 378.438H419.1066C421.0472 378.438 422.5059 376.6666 422.1354 374.7626" fill="#FFFFFF"/>
<path transform="matrix(1,0,0,-1,-80.5734,378.438)" d="M645.5254 374.7626 643.6877 365.298C643.4048 363.848 642.1365 362.8018 640.6586 362.8018L594.5709 362.7632C592.7366 362.7632 591.1611 361.4584 590.8187 359.6573L587.9659 344.7043C587.5152 342.3512 589.3217 340.1691 591.7164 340.1691H630.2979C631.6693 340.1691 632.698 338.9219 632.4415 337.5768L630.2735 326.2694C630.078 325.2421 629.1782 324.498 628.13 324.498H587.1189C585.2897 324.498 583.7159 323.2018 583.3684 321.4026L580.4039 306.0581C579.9495 303.7017 581.7557 301.5145 584.1544 301.5145L625.466 301.5057H629.8002C631.7408 301.5057 633.1995 299.7363 632.8293 297.832L630.953 288.1806C630.6718 286.7323 629.4019 285.6861 627.9256 285.6861H579.3627C569.0126 285.6861 561.2338 295.1209 563.2075 305.2826L576.786 375.1084C577.1616 377.0422 578.8562 378.438 580.8249 378.438H642.4963C644.4371 378.438 645.8958 376.6666 645.5254 374.7626" fill="#FFFFFF"/>
<path transform="matrix(1,0,0,-1,-80.5734,378.438)" d="M85.7441 314.0589 83.3037 301.5057Z" fill="#FFFFFF"/>
<path transform="matrix(1,0,0,-1,-80.5734,378.438)" d="M154.2878 255.4478C154.2878 251.5714 154.9307 248.8813 156.2148 247.3736 157.523 245.8434 159.4621 245.0784 162.03 245.0784 163.4868 245.0784 165.3265 245.2757 167.5483 245.6705L167.8819 243.0782C165.9796 242.6083 163.9185 242.3741 161.6964 242.3741 157.9178 242.3741 155.1526 243.5479 153.4005 245.8925 151.6711 248.2384 150.808 251.4107 150.808 255.4109 150.808 257.3623 151.0106 259.09 151.4177 260.5975 151.8265 262.1032 152.3628 263.3244 153.03 264.2641 153.6956 265.2024 154.5043 265.9674 155.4548 266.5596 156.4067 267.1517 157.3815 267.5659 158.3807 267.7997 159.3816 268.0356 160.4492 268.1527 161.5844 268.1527 164.0302 268.1527 166.2015 267.6705 168.1038 266.7081L167.288 264.0407C165.5359 264.9297 163.6722 265.3753 161.6964 265.3753 159.3748 265.3753 157.5598 264.6346 156.2513 263.1515 154.9429 261.6457 154.2878 259.0778 154.2878 255.4478ZM178.8437 242.3741C175.9561 242.3741 173.8562 243.127 172.548 244.6328 171.2395 246.1405 170.5844 248.6455 170.5844 252.1514 170.5844 255.5351 171.2954 258.0103 172.7138 259.579 174.134 261.146 176.239 261.9303 179.0289 261.9303 181.8204 261.9303 183.8869 261.1582 185.2336 259.6158 186.5786 258.0715 187.2513 255.5963 187.2513 252.1899 187.2513 245.6461 184.4493 242.3741 178.8437 242.3741ZM178.9554 259.4115C177.3746 259.4115 176.129 258.8803 175.2154 257.8181 174.3018 256.758 173.844 254.8678 173.844 252.1514 173.844 249.5835 174.2581 247.7319 175.0844 246.5963 175.9124 245.4608 177.1894 244.8933 178.9189 244.8933 180.5224 244.8933 181.7697 245.4922 182.6589 246.689 183.5478 247.8872 183.9917 249.7076 183.9917 252.1514 183.9917 254.9673 183.5725 256.8679 182.734 257.8567 181.8935 258.8924 180.6341 259.4115 178.9554 259.4115ZM191.4735 242.8929V260.0036C194.4607 261.3121 197.2259 261.9672 199.7694 261.9672 201.9915 261.9672 203.6089 261.4238 204.6203 260.3373 206.7446 261.4238 208.8933 261.9672 211.0663 261.9672 213.2376 261.9672 214.8625 261.4972 215.9368 260.5592 217.0111 259.6209 217.5474 258.0157 217.5474 255.7449V242.8929H214.4727V255.1893C214.4727 256.7701 214.1583 257.8496 213.5296 258.4295 212.8989 259.0095 211.856 259.2995 210.399 259.2995 208.8181 259.2995 207.3246 258.9554 205.9183 258.2637 206.1159 257.5964 206.2137 256.758 206.2137 255.7449V242.8929H203.1392V255.1893C203.1392 256.7701 202.8246 257.8496 202.1958 258.4295 201.5651 259.0095 200.5223 259.2995 199.0653 259.2995 197.3132 259.2995 195.8179 258.9554 194.5845 258.2637V242.8929ZM238.3997 261.485H241.8812C243.5111 259.1651 244.3252 256.3245 244.3252 252.9672 244.3252 251.5592 244.1784 250.2507 243.8813 249.042 243.5845 247.8314 243.1216 246.7134 242.4926 245.6898 241.8619 244.6642 240.9746 243.8555 239.8252 243.2633 238.6774 242.6712 237.3375 242.3741 235.8074 242.3741 233.4858 242.3741 231.8139 242.837 230.7886 243.7628 229.7631 244.6889 229.2514 246.2505 229.2514 248.4479V261.485H232.3993V249.6708C232.3993 248.2628 232.5722 247.1641 232.918 246.3744 233.388 245.412 234.4623 244.9298 236.141 244.9298 237.8687 244.9298 239.1403 245.6461 239.9545 247.0785 240.7946 248.5108 241.2139 250.312 241.2139 252.485 241.2139 254.1393 240.9554 255.7936 240.4366 257.4479 239.9176 259.1022 239.2398 260.4489 238.3997 261.485ZM255.437 242.3741C252.5494 242.3741 250.4497 243.127 249.1413 244.6328 247.8328 246.1405 247.1777 248.6455 247.1777 252.1514 247.1777 255.5351 247.8886 258.0103 249.3071 259.579 250.7272 261.146 252.8323 261.9303 255.6221 261.9303 258.4137 261.9303 260.4801 261.1582 261.8269 259.6158 263.1722 258.0715 263.8446 255.5963 263.8446 252.1899 263.8446 245.6461 261.0425 242.3741 255.437 242.3741ZM255.5487 259.4115C253.9678 259.4115 252.7223 258.8803 251.8087 257.8181 250.8951 256.758 250.4373 254.8678 250.4373 252.1514 250.4373 249.5835 250.8514 247.7319 251.6777 246.5963 252.5057 245.4608 253.7827 244.8933 255.5121 244.8933 257.1157 244.8933 258.3629 245.4922 259.2522 246.689 260.1414 247.8872 260.585 249.7076 260.585 252.1514 260.585 254.9673 260.1658 256.8679 259.3273 257.8567 258.4871 258.8924 257.2274 259.4115 255.5487 259.4115ZM281.1404 260.6709 280.4732 258.2271C279.1647 258.8437 277.8075 259.1529 276.3995 259.1529 274.5723 259.1529 273.1397 258.5588 272.1039 257.3745 271.0661 256.1902 270.5474 254.4486 270.5474 252.1514 270.5474 249.7564 271.0661 247.9606 272.1039 246.7641 273.1397 245.5656 274.5476 244.9664 276.3261 244.9664 277.8562 244.9664 279.4005 245.2635 280.9553 245.8556L281.4372 243.4119C279.5105 242.7199 277.7706 242.3741 276.2141 242.3741 273.5974 242.3741 271.4244 243.1777 269.6967 244.7813 268.016 246.4112 267.1775 248.8691 267.1775 252.1514 267.1775 255.3622 267.9619 257.7937 269.5289 259.448 271.0976 261.1023 273.227 261.9303 275.919 261.9303 277.9682 261.9303 279.7078 261.5111 281.1404 260.6709ZM287.0657 250.4849C287.4115 246.8812 289.2756 245.0784 292.6593 245.0784 294.0656 245.0784 295.8194 245.4364 297.9173 246.1527L298.2878 243.5604C296.1408 242.8441 294.1894 242.4861 292.4357 242.4861 289.7456 242.4861 287.6335 243.2755 286.1033 244.8564 284.5712 246.4356 283.8061 248.8062 283.8061 251.9663 283.8061 254.8556 284.6585 257.2016 286.3619 259.0044 288.1157 260.8316 290.4494 261.7452 293.3614 261.7452 295.1643 261.7452 296.5652 261.258 297.5661 260.2814 298.5653 259.3066 299.0667 258.0664 299.0667 256.5604 299.016 254.4364 298.1392 252.8308 296.4359 251.7443 294.6838 250.6334 292.6471 250.0778 290.3255 250.0778 289.1149 250.0778 288.0283 250.2142 287.0657 250.4849ZM287.1777 252.7452C287.9671 252.4484 288.8807 252.2999 289.9185 252.2999 291.473 252.2999 292.8322 252.6579 293.9922 253.3742 295.1521 254.0906 295.7321 255.128 295.7321 256.4853 295.7321 257.3501 295.4857 258.0228 294.9914 258.5047 294.4987 258.9851 293.8314 259.2264 292.9912 259.2264 291.7823 259.2264 290.7201 258.8681 289.8065 258.152 288.2764 256.9674 287.3993 255.1649 287.1777 252.7452ZM295.3616 264.4109 292.3991 267.5974 289.2512 264.4109 287.4728 265.7455 291.1394 269.8191H293.5466L297.2517 265.7455ZM306.7705 245.0784C306.7705 242.5105 305.6717 240.2011 303.474 238.1519H300.3996C302.4244 240.4735 303.4375 242.5961 303.4375 244.5228 303.4375 245.3125 303.2277 246.2014 302.8068 247.1885H306.3268C306.6219 246.5476 306.7705 245.8434 306.7705 245.0784ZM326.6201 242.3741C323.7327 242.3741 321.6328 243.127 320.3243 244.6328 319.0161 246.1405 318.361 248.6455 318.361 252.1514 318.361 255.5351 319.072 258.0103 320.4904 259.579 321.9106 261.146 324.0156 261.9303 326.8054 261.9303 329.5967 261.9303 331.6635 261.1582 333.0102 259.6158 334.3552 258.0715 335.0279 255.5963 335.0279 252.1899 335.0279 245.6461 332.2259 242.3741 326.6201 242.3741ZM326.732 259.4115C325.1511 259.4115 323.9056 258.8803 322.992 257.8181 322.0784 256.758 321.6206 254.8678 321.6206 252.1514 321.6206 249.5835 322.0347 247.7319 322.8608 246.5963 323.689 245.4608 324.9658 244.8933 326.6952 244.8933 328.299 244.8933 329.5463 245.4922 330.4352 246.689 331.3244 247.8872 331.7681 249.7076 331.7681 252.1514 331.7681 254.9673 331.3488 256.8679 330.5103 257.8567 329.6701 258.8924 328.4107 259.4115 326.732 259.4115ZM339.2501 242.8929V260.0036C342.2126 261.3121 345.0637 261.9672 347.8045 261.9672 350.0527 261.9672 351.7123 261.4972 352.7867 260.5592 353.8607 259.6209 354.397 257.9788 354.397 255.6329V242.8929H351.3243V255.0773C351.3243 256.6585 351.0082 257.764 350.3792 258.393 349.7505 259.022 348.781 259.338 347.4726 259.338 345.6454 259.338 343.9403 259.0044 342.3611 258.3371V242.8929ZM371.5078 246.0407V258.8193C370.5452 259.2139 369.2367 259.4115 367.5824 259.4115 363.8285 259.4115 361.9525 256.758 361.9525 251.4492 361.9525 249.3249 362.4276 247.695 363.3778 246.5597 364.3299 245.4242 365.6069 244.8564 367.2122 244.8564 368.6936 244.8564 370.1259 245.2513 371.5078 246.0407ZM375.1379 242.7812H372.2117L371.878 244.0774C370.5695 243.0904 368.6814 242.5961 366.2113 242.5961 363.9158 242.5961 362.0693 243.3489 360.6755 244.8564 359.2797 246.3622 358.5827 248.5477 358.5827 251.4107 358.5827 258.4001 361.3725 261.8938 366.952 261.8938 368.8299 261.8938 370.3479 261.6962 371.5078 261.2996V269.2638H374.5823V247.0785C374.6557 245.2757 374.8408 243.8433 375.1379 242.7812ZM381.7672 250.4849C382.1131 246.8812 383.9769 245.0784 387.3606 245.0784 388.7668 245.0784 390.5206 245.4364 392.6186 246.1527L392.989 243.5604C390.8421 242.8441 388.891 242.4861 387.1369 242.4861 384.4468 242.4861 382.3347 243.2755 380.8046 244.8564 379.2725 246.4356 378.5074 248.8062 378.5074 251.9663 378.5074 254.8556 379.3601 257.2016 381.0631 259.0044 382.8169 260.8316 385.1507 261.7452 388.0627 261.7452 389.8655 261.7452 391.2667 261.258 392.2676 260.2814 393.2668 259.3066 393.768 258.0664 393.768 256.5604 393.7175 254.4364 392.8405 252.8308 391.1374 251.7443 389.3854 250.6334 387.3484 250.0778 385.0268 250.0778 383.8161 250.0778 382.7296 250.2142 381.7672 250.4849ZM381.8789 252.7452C382.6684 252.4484 383.582 252.2999 384.6197 252.2999 386.1746 252.2999 387.5335 252.6579 388.6934 253.3742 389.8534 254.0906 390.4333 255.128 390.4333 256.4853 390.4333 257.3501 390.187 258.0228 389.6926 258.5047 389.2 258.9851 388.5327 259.2264 387.6925 259.2264 386.4838 259.2264 385.4217 258.8681 384.5081 258.152 382.9776 256.9674 382.1009 255.1649 381.8789 252.7452ZM404.5813 243.707 405.2117 246.4863C406.9641 245.6461 408.6689 245.2269 410.3232 245.2269 411.4831 245.2269 412.4089 245.4732 413.1009 245.9676 413.7925 246.46 414.1383 247.0785 414.1383 247.8192 414.1383 249.2271 413.064 250.2876 410.9153 251.0036 409.9774 251.3251 409.2857 251.5785 408.8418 251.7636 408.3965 251.9487 407.8111 252.258 407.0829 252.6894 406.3544 253.1208 405.8286 253.652 405.5088 254.2825 405.1874 254.9115 405.0266 255.6468 405.0266 256.4853 405.0266 258.2393 405.6381 259.5966 406.8592 260.5592 408.0821 261.5233 409.6559 262.0037 411.5826 262.0037 413.4098 262.0037 415.0766 261.5845 416.5824 260.7443L416.0633 258.1886C414.7551 258.9293 413.3225 259.2995 411.768 259.2995 410.6568 259.2995 409.773 259.09 409.1196 258.6708 408.4645 258.2515 408.138 257.6086 408.138 256.7458 408.138 255.4109 409.2123 254.3873 411.3592 253.6713 412.126 253.423 412.6745 253.2379 413.0082 253.1157 413.3418 252.9916 413.8415 252.7628 414.5088 252.4309 415.1744 252.0972 415.6688 251.769 415.9902 251.4492 416.3097 251.1278 416.6067 250.6893 416.8791 250.1337 417.1499 249.5784 417.2862 248.9547 417.2862 248.2628 417.2862 246.5597 416.6626 245.1586 415.4153 244.0599 414.1681 242.9612 412.4336 242.411 410.2115 242.411 409.125 242.411 408.0506 242.5348 406.9902 242.7812 405.9281 243.0292 405.1244 243.3368 404.5813 243.707ZM436.4705 242.7446H433.4709L433.0641 244.1891C431.7049 242.9785 429.9021 242.3741 427.6556 242.3741 425.6555 242.3741 424.0763 242.9368 422.9147 244.0599 421.7547 245.1832 421.1748 246.8443 421.1748 249.042V261.485H424.2861V249.2271C424.2861 247.8192 424.686 246.7449 425.4897 246.0042 426.2913 245.2635 427.3588 244.8933 428.6934 244.8933 430.2969 244.8933 431.6805 245.3247 432.8405 246.1893V261.485H435.9515V246.5963C436.0266 245.1149 436.1995 243.8311 436.4705 242.7446ZM452.3967 246.2627V258.8559C451.3589 259.1283 450.3597 259.2629 449.3954 259.2629 445.3707 259.2629 443.3584 256.758 443.3584 251.7443 443.3584 249.5713 443.7672 247.8994 444.581 246.7256 445.3968 245.5534 446.618 244.9664 448.2479 244.9664 449.778 244.9664 451.1616 245.3998 452.3967 246.2627ZM456.0999 242.7812H453.1374L452.7669 244.3011C451.408 243.1392 449.7415 242.5592 447.7657 242.5592 445.3464 242.5592 443.4647 243.3489 442.118 244.9298 440.7729 246.5107 440.1003 248.8567 440.1003 251.9663 440.1003 255.4739 440.9388 257.9913 442.6177 259.5231 444.2981 261.0289 446.508 261.7818 449.2488 261.7818 451.3467 261.7818 453.4447 261.4238 455.5446 260.7075V247.0785C455.6177 245.2757 455.8031 243.8433 456.0999 242.7812ZM476.3234 261.485H479.8049C481.4348 259.1651 482.2489 256.3245 482.2489 252.9672 482.2489 251.5592 482.1021 250.2507 481.8053 249.042 481.5082 247.8314 481.0453 246.7134 480.4163 245.6898 479.7859 244.6642 478.8984 243.8555 477.7489 243.2633 476.6012 242.6712 475.2615 242.3741 473.7311 242.3741 471.4095 242.3741 469.7379 242.837 468.7123 243.7628 467.6871 244.6889 467.1751 246.2505 467.1751 248.4479V261.485H470.323V249.6708C470.323 248.2628 470.4959 247.1641 470.8417 246.3744 471.3117 245.412 472.386 244.9298 474.0647 244.9298 475.7924 244.9298 477.0641 245.6461 477.8782 247.0785 478.7184 248.5108 479.1376 250.312 479.1376 252.485 479.1376 254.1393 478.8791 255.7936 478.3603 257.4479 477.8416 259.1022 477.1638 260.4489 476.3234 261.485ZM488.3227 250.4849C488.6685 246.8812 490.5326 245.0784 493.9163 245.0784 495.3226 245.0784 497.0764 245.4364 499.1743 246.1527L499.5448 243.5604C497.3978 242.8441 495.4465 242.4861 493.6927 242.4861 491.0026 242.4861 488.8905 243.2755 487.3603 244.8564 485.8282 246.4356 485.0631 248.8062 485.0631 251.9663 485.0631 254.8556 485.9155 257.2016 487.6189 259.0044 489.3727 260.8316 491.7064 261.7452 494.6185 261.7452 496.4213 261.7452 497.8222 261.258 498.8231 260.2814 499.8223 259.3066 500.3237 258.0664 500.3237 256.5604 500.273 254.4364 499.3963 252.8308 497.6929 251.7443 495.9408 250.6334 493.9041 250.0778 491.5826 250.0778 490.3719 250.0778 489.2854 250.2142 488.3227 250.4849ZM488.4347 252.7452C489.2241 252.4484 490.1377 252.2999 491.1755 252.2999 492.73 252.2999 494.0892 252.6579 495.2492 253.3742 496.4091 254.0906 496.9891 255.128 496.9891 256.4853 496.9891 257.3501 496.7427 258.0228 496.2484 258.5047 495.7557 258.9851 495.0884 259.2264 494.2483 259.2264 493.0393 259.2264 491.9771 258.8681 491.0635 258.152 489.5334 256.9674 488.6563 255.1649 488.4347 252.7452ZM504.5094 242.8929V260.0036C507.4719 261.3121 510.323 261.9672 513.0638 261.9672 515.3119 261.9672 516.9713 261.4972 518.0457 260.5592 519.12 259.6209 519.6563 257.9788 519.6563 255.6329V242.8929H516.5836V255.0773C516.5836 256.6585 516.2675 257.764 515.6385 258.393 515.0098 259.022 514.0403 259.338 512.7318 259.338 510.9046 259.338 509.1996 259.0044 507.6204 258.3371V242.8929ZM536.7671 246.0407V258.8193C535.8044 259.2139 534.496 259.4115 532.8417 259.4115 529.0877 259.4115 527.2115 256.758 527.2115 251.4492 527.2115 249.3249 527.6869 247.695 528.637 246.5597 529.5892 245.4242 530.8659 244.8564 532.4715 244.8564 533.9529 244.8564 535.3852 245.2513 536.7671 246.0407ZM540.3969 242.7812H537.4709L537.1373 244.0774C535.8288 243.0904 533.9407 242.5961 531.4706 242.5961 529.1751 242.5961 527.3286 243.3489 525.9345 244.8564 524.539 246.3622 523.842 248.5477 523.842 251.4107 523.842 258.4001 526.6315 261.8938 532.2112 261.8938 534.0889 261.8938 535.6071 261.6962 536.7671 261.2996V269.2638H539.8415V247.0785C539.915 245.2757 540.1001 243.8433 540.3969 242.7812ZM555.9528 246.2627V258.8559C554.9153 259.1283 553.9161 259.2629 552.9518 259.2629 548.9269 259.2629 546.9146 256.758 546.9146 251.7443 546.9146 249.5713 547.3233 247.8994 548.1374 246.7256 548.9532 245.5534 550.1741 244.9664 551.804 244.9664 553.3342 244.9664 554.7178 245.3998 555.9528 246.2627ZM559.6563 242.7812H556.6935L556.3233 244.3011C554.9641 243.1392 553.2976 242.5592 551.3219 242.5592 548.9025 242.5592 547.0211 243.3489 545.6744 244.9298 544.3291 246.5107 543.6567 248.8567 543.6567 251.9663 543.6567 255.4739 544.4952 257.9913 546.1739 259.5231 547.8542 261.0289 550.0641 261.7818 552.8049 261.7818 554.9029 261.7818 557.0011 261.4238 559.1007 260.7075V247.0785C559.1741 245.2757 559.3592 243.8433 559.6563 242.7812ZM574.1745 250.4849C574.5203 246.8812 576.3844 245.0784 579.7678 245.0784 581.1741 245.0784 582.9282 245.4364 585.0261 246.1527L585.3963 243.5604C583.2493 242.8441 581.2982 242.4861 579.5444 242.4861 576.8541 242.4861 574.7423 243.2755 573.2118 244.8564 571.68 246.4356 570.9149 248.8062 570.9149 251.9663 570.9149 254.8556 571.7673 257.2016 573.4704 259.0044 575.2244 260.8316 577.5582 261.7452 580.4702 261.7452 582.2731 261.7452 583.674 261.258 584.6749 260.2814 585.6741 259.3066 586.1755 258.0664 586.1755 256.5604 586.1248 254.4364 585.2477 252.8308 583.5447 251.7443 581.7926 250.6334 579.7556 250.0778 577.434 250.0778 576.2237 250.0778 575.1371 250.2142 574.1745 250.4849ZM574.2862 252.7452C575.0759 252.4484 575.9895 252.2999 577.027 252.2999 578.5818 252.2999 579.941 252.6579 581.1009 253.3742 582.2606 254.0906 582.8406 255.128 582.8406 256.4853 582.8406 257.3501 582.5945 258.0228 582.1002 258.5047 581.6075 258.9851 580.9402 259.2264 580.0997 259.2264 578.8911 259.2264 577.8289 258.8681 576.9153 258.152 575.3852 256.9674 574.5081 255.1649 574.2862 252.7452ZM589.2114 243.707 589.8421 246.4863C591.5942 245.6461 593.2993 245.2269 594.9536 245.2269 596.1135 245.2269 597.0393 245.4732 597.731 245.9676 598.4229 246.46 598.7687 247.0785 598.7687 247.8192 598.7687 249.2271 597.6944 250.2876 595.5457 251.0036 594.6077 251.3251 593.9158 251.5785 593.4722 251.7636 593.0266 251.9487 592.4415 252.258 591.713 252.6894 590.9845 253.1208 590.4587 253.652 590.1392 254.2825 589.8178 254.9115 589.657 255.6468 589.657 256.4853 589.657 258.2393 590.2685 259.5966 591.4894 260.5592 592.7122 261.5233 594.2863 262.0037 596.213 262.0037 598.0402 262.0037 599.7067 261.5845 601.2125 260.7443L600.6937 258.1886C599.3853 258.9293 597.9529 259.2995 596.3981 259.2995 595.2872 259.2995 594.4034 259.09 593.75 258.6708 593.0949 258.2515 592.7681 257.6086 592.7681 256.7458 592.7681 255.4109 593.8424 254.3873 595.9894 253.6713 596.7561 253.423 597.3049 253.2379 597.6386 253.1157 597.9722 252.9916 598.4717 252.7628 599.1389 252.4309 599.8045 252.0972 600.2989 251.769 600.6203 251.4492 600.9401 251.1278 601.2369 250.6893 601.5095 250.1337 601.7803 249.5784 601.9166 248.9547 601.9166 248.2628 601.9166 246.5597 601.293 245.1586 600.0457 244.0599 598.7985 242.9612 597.0637 242.411 594.8416 242.411 593.7551 242.411 592.6808 242.5348 591.6206 242.7812 590.5585 243.0292 589.7548 243.3368 589.2114 243.707ZM614.7683 245.5971 615.2485 243.2633C613.8425 242.769 612.5828 242.5226 611.4719 242.5226 609.4718 242.5226 608.125 242.8929 607.4348 243.6335 606.7675 244.4233 606.4339 245.77 606.4339 247.6706V259.0044H603.915V261.485H606.4339V266.5962H609.5818V261.485H615.7307L615.2485 259.0044H609.5452V247.3004C609.5452 246.5597 609.6325 246.0285 609.8054 245.7071 610.0517 245.2391 610.6439 245.0049 611.5819 245.0049 612.5953 245.0049 613.6571 245.2022 614.7683 245.5971ZM618.2864 261.485H621.3609V242.8929H618.2864ZM621.3609 265.1516H618.2864V269.0033H621.3609ZM634.7682 261.485H638.2497C639.8796 259.1651 640.6937 256.3245 640.6937 252.9672 640.6937 251.5592 640.5469 250.2507 640.2498 249.042 639.953 247.8314 639.4898 246.7134 638.8611 245.6898 638.2304 244.6642 637.3431 243.8555 636.1937 243.2633 635.046 242.6712 633.706 242.3741 632.1759 242.3741 629.8543 242.3741 628.1824 242.837 627.1571 243.7628 626.1316 244.6889 625.6199 246.2505 625.6199 248.4479V261.485H628.7678V249.6708C628.7678 248.2628 628.9407 247.1641 629.2865 246.3744 629.7565 245.412 630.8308 244.9298 632.5095 244.9298 634.2372 244.9298 635.5089 245.6461 636.323 247.0785 637.1631 248.5108 637.5824 250.312 637.5824 252.485 637.5824 254.1393 637.3239 255.7936 636.8051 257.4479 636.2861 259.1022 635.6083 260.4489 634.7682 261.485ZM646.7675 250.4849C647.1133 246.8812 648.9771 245.0784 652.3608 245.0784 653.7671 245.0784 655.5209 245.4364 657.6191 246.1527L657.9893 243.5604C655.8423 242.8441 653.8912 242.4861 652.1374 242.4861 649.4471 242.4861 647.3353 243.2755 645.8049 244.8564 644.273 246.4356 643.5077 248.8062 643.5077 251.9663 643.5077 254.8556 644.3603 257.2016 646.0634 259.0044 647.8172 260.8316 650.1512 261.7452 653.0632 261.7452 654.8658 261.7452 656.267 261.258 657.2679 260.2814 658.2671 259.3066 658.7685 258.0664 658.7685 256.5604 658.7178 254.4364 657.8408 252.8308 656.1377 251.7443 654.3856 250.6334 652.3486 250.0778 650.0271 250.0778 648.8164 250.0778 647.7299 250.2142 646.7675 250.4849ZM646.8792 252.7452C647.6689 252.4484 648.5825 252.2999 649.62 252.2999 651.1748 252.2999 652.5337 252.6579 653.6937 253.3742 654.8536 254.0906 655.4336 255.128 655.4336 256.4853 655.4336 257.3501 655.1872 258.0228 654.6929 258.5047 654.2005 258.9851 653.5329 259.2264 652.6928 259.2264 651.4841 259.2264 650.4219 258.8681 649.5083 258.152 647.9779 256.9674 647.1011 255.1649 646.8792 252.7452ZM672.546 261.5233 672.139 258.7442C671.4961 258.8924 670.8305 258.9676 670.1389 258.9676 668.2626 258.9676 666.9037 258.5974 666.0652 257.8567V242.8929H662.9539V261.485H665.6564L665.9167 259.7083C667.1517 261.0411 668.7938 261.7087 670.8427 261.7087 671.3617 261.7087 671.9292 261.6457 672.546 261.5233" fill="#FFFFFF" fill-rule="evenodd"/>
</g>
</svg>
